<svg width="12" height="12" viewBox="0 0 12 12" fill="none" xmlns="http://www.w3.org/2000/svg">
<path d="M10.9224 9.79296C10.6372 9.11936 10.2234 8.50749 9.70395 7.99146C9.18607 7.47393 8.5726 7.06131 7.89741 6.77638C7.89136 6.77337 7.88532 6.77186 7.87927 6.76884C8.82109 6.09045 9.43335 4.98543 9.43335 3.73869C9.43335 1.67337 7.75531 0 5.68421 0C3.61312 0 1.93508 1.67337 1.93508 3.73869C1.93508 4.98543 2.54733 6.09045 3.48915 6.77035C3.48311 6.77337 3.47706 6.77487 3.47101 6.77789C2.79375 7.06281 2.18603 7.47136 1.66447 7.99297C1.1455 8.5094 0.731731 9.12116 0.446003 9.79447C0.165305 10.4536 0.0139186 11.1604 3.78028e-05 11.8764C-0.00036569 11.8925 0.00246434 11.9085 0.00836123 11.9235C0.0142581 11.9384 0.0231025 11.9521 0.0343732 11.9636C0.045644 11.9751 0.059113 11.9843 0.0739867 11.9905C0.0888604 11.9968 0.104838 12 0.120978 12H1.02803C1.09454 12 1.14745 11.9472 1.14897 11.8824C1.1792 10.7186 1.64784 9.62864 2.47628 8.80251C3.33344 7.94774 4.47179 7.47739 5.68421 7.47739C6.89663 7.47739 8.03498 7.94774 8.89214 8.80251C9.72058 9.62864 10.1892 10.7186 10.2195 11.8824C10.221 11.9487 10.2739 12 10.3404 12H11.2474C11.2636 12 11.2796 11.9968 11.2944 11.9905C11.3093 11.9843 11.3228 11.9751 11.334 11.9636C11.3453 11.9521 11.3542 11.9384 11.3601 11.9235C11.366 11.9085 11.3688 11.8925 11.3684 11.8764C11.3533 11.1558 11.2036 10.4548 10.9224 9.79296V9.79296ZM5.68421 6.33166C4.99032 6.33166 4.33724 6.06181 3.84592 5.57186C3.35461 5.08191 3.084 4.43065 3.084 3.73869C3.084 3.04673 3.35461 2.39548 3.84592 1.90553C4.33724 1.41558 4.99032 1.14573 5.68421 1.14573C6.3781 1.14573 7.03118 1.41558 7.5225 1.90553C8.01381 2.39548 8.28442 3.04673 8.28442 3.73869C8.28442 4.43065 8.01381 5.08191 7.5225 5.57186C7.03118 6.06181 6.3781 6.33166 5.68421 6.33166Z" fill="white"/>
</svg>
