<svg width="18" height="22" viewBox="0 0 18 22" fill="none" xmlns="http://www.w3.org/2000/svg">
<path d="M13.8462 13.75H11.0769V21.3125C11.0769 21.4987 11.0084 21.6598 10.8714 21.7959C10.7344 21.932 10.5721 22 10.3846 22H7.61538C7.42788 22 7.26563 21.932 7.12861 21.7959C6.99159 21.6598 6.92308 21.4987 6.92308 21.3125V16.5H4.15385C3.01442 16.5 2.03726 16.099 1.22236 15.2969C0.407452 14.4948 0 13.5208 0 12.375V8.9375C0 8.36458 0.201923 7.8776 0.605769 7.47656C1.00962 7.07552 1.5 6.875 2.07692 6.875C2.65385 6.875 3.14423 7.07552 3.54808 7.47656C3.95192 7.8776 4.15385 8.36458 4.15385 8.9375V12.375H6.92308V2.14844C6.92308 1.54688 7.125 1.03841 7.52885 0.623047C7.93269 0.207682 8.42308 0 9 0C9.57692 0 10.0673 0.207682 10.4712 0.623047C10.875 1.03841 11.0769 1.54688 11.0769 2.14844V9.625H13.8462V4.8125C13.8462 4.23958 14.0481 3.7526 14.4519 3.35156C14.8558 2.95052 15.3462 2.75 15.9231 2.75C16.5 2.75 16.9904 2.95052 17.3942 3.35156C17.7981 3.7526 18 4.23958 18 4.8125V9.625C18 10.7565 17.5962 11.7269 16.7885 12.5361C15.9808 13.3454 15 13.75 13.8462 13.75Z" fill="white"/>
</svg>
