<svg width="15" height="14" viewBox="0 0 15 14" fill="none" xmlns="http://www.w3.org/2000/svg">
<path d="M3 3.66666H12.1933C12.3796 3.66666 12.5638 3.7057 12.7341 3.78126C12.9044 3.85682 13.0569 3.96721 13.1819 4.10533C13.3069 4.24345 13.4016 4.40623 13.4598 4.58317C13.518 4.76012 13.5385 4.9473 13.52 5.13266L13.12 9.13266C13.0871 9.46166 12.9331 9.7667 12.688 9.98857C12.4428 10.2104 12.124 10.3333 11.7933 10.3333H5.42667C5.11831 10.3334 4.81945 10.2267 4.58096 10.0312C4.34247 9.83577 4.1791 9.56369 4.11867 9.26132L3 3.66666Z" stroke="white" stroke-width="2" stroke-linejoin="round"/>
<path d="M3 3.66667L2.46 1.50467C2.42389 1.3605 2.34063 1.23254 2.22347 1.1411C2.10631 1.04967 1.96195 1 1.81333 1H1" stroke="white" stroke-width="2" stroke-linecap="round" stroke-linejoin="round"/>
<path d="M5 13H6.33333" stroke="white" stroke-width="2" stroke-linecap="round" stroke-linejoin="round"/>
<path d="M10.3333 13H11.6667" stroke="white" stroke-width="2" stroke-linecap="round" stroke-linejoin="round"/>
</svg>
